<?xml version="1.0" encoding="UTF-8" standalone="no"?>
<svg
   fill="none"
   viewBox="0 0 1024 1024"
   id="Tablet-Capsule--Streamline-Core.svg"
   version="1.1"
   sodipodi:docname="logo.svg"
   width="1024"
   height="1024"
   inkscape:export-filename="C:\Users\Robyn\repos\Simpill\app\src\main\res\mipmap-hdpi\ic_launcher.png"
   inkscape:export-xdpi="6.75"
   inkscape:export-ydpi="6.75"
   inkscape:version="1.1.1 (3bf5ae0d25, 2021-09-20)"
   xmlns:inkscape="http://www.inkscape.org/namespaces/inkscape"
   xmlns:sodipodi="http://sodipodi.sourceforge.net/DTD/sodipodi-0.dtd"
   xmlns="http://www.w3.org/2000/svg"
   xmlns:svg="http://www.w3.org/2000/svg">
  <defs
     id="defs27" />
  <sodipodi:namedview
     id="namedview25"
     pagecolor="#ffffff"
     bordercolor="#666666"
     borderopacity="1.0"
     inkscape:pageshadow="2"
     inkscape:pageopacity="0.0"
     inkscape:pagecheckerboard="0"
     showgrid="false"
     width="1024px"
     inkscape:zoom="0.45145089"
     inkscape:cx="-202.67985"
     inkscape:cy="448.55377"
     inkscape:window-width="1920"
     inkscape:window-height="1017"
     inkscape:window-x="1912"
     inkscape:window-y="-8"
     inkscape:window-maximized="1"
     inkscape:current-layer="Tablet-Capsule--Streamline-Core.svg" />
  <desc
     id="desc19">Tablet Capsule Streamline Icon: https://streamlinehq.com</desc>
  <g
     id="tablet-capsule--health-medical-hospital-medicine-capsule-tablet"
     transform="matrix(0.9136081,0,0,0.92272598,1009.8339,14.307385)">
    <rect
       style="fill:#83dbe7;fill-opacity:1"
       id="rect1000"
       width="1120.8307"
       height="1109.7552"
       x="-1105.3251"
       y="-15.505563"
       ry="0" />
  </g>
  <g
     inkscape:groupmode="layer"
     id="layer1"
     inkscape:label="Layer 1">
    <path
       id="Union"
       fill="#b7a2c9"
       fill-rule="evenodd"
       d="m 432.8343,323.7483 -35.60964,-35.60963 -35.66,35.60963 -136.89814,136.94852 A 234.81206,234.81206 0 1 0 556.7377,792.76801 l 136.94852,-136.89815 35.60963,-35.66 L 693.68622,584.60022 432.78393,323.7483 Z"
       clip-rule="evenodd"
       stroke-width="50.3672"
       style="fill:#ffffff;fill-opacity:1" />
    <path
       id="Union_2"
       fill="#4b3a70"
       fill-rule="evenodd"
       d="m 614.15635,168.46611 a 234.81206,234.81206 0 0 0 -166.01041,68.75128 l -86.53091,86.53091 -35.66,35.66 35.66,35.60964 260.80154,260.85192 35.60965,35.60963 35.66,-35.60963 86.53091,-86.58128 A 234.81206,234.81206 0 0 0 614.15635,168.46611 Z"
       clip-rule="evenodd"
       stroke-width="50.3672"
       style="fill:#263548;fill-opacity:1" />
  </g>
</svg>
